<?xml version="1.0" encoding="UTF-8"?>
<!-- Generator: https://ezgif.com/png-to-svg -->
<svg version="1.1" xmlns="http://www.w3.org/2000/svg" width="128" height="128">
<path d="M0 0 C1.27 -0.01 2.53 -0.02 3.84 -0.03 C21.23 0.1 35.76 7.34 48.05 19.49 C61.05 33.14 65.66 49.15 65.47 67.69 C64.8 86.1 57.18 100.8 43.88 113.56 C31.21 123.94 17.35 129.16 1 129 C-0.58 128.99 -0.58 128.99 -2.19 128.98 C-10.16 128.81 -16.78 127.83 -24.12 124.56 C-25 124.2 -25.87 123.84 -26.77 123.46 C-42.64 116.27 -54.48 102.38 -61 86.41 C-63.58 78.96 -63.64 71.64 -63.62 63.81 C-63.65 62.54 -63.68 61.28 -63.71 59.97 C-63.74 43.36 -57.28 29.75 -45.88 17.81 C-32.62 5.15 -18.21 -0.34 0 0 Z " fill="#FF5E73" transform="translate(63.125,-0.5625)"/>
<path d="M0 0 C10.85 8.41 17.93 21.45 20 35 C22.05 55.57 18.88 72.26 5.9 88.65 C-4.4 100.75 -18.91 109.64 -34.93 111.3 C-37.92 111.44 -40.88 111.47 -43.88 111.44 C-44.93 111.43 -45.98 111.42 -47.06 111.42 C-55.04 111.25 -61.65 110.27 -69 107 C-69.87 106.64 -70.75 106.28 -71.64 105.9 C-79.86 102.18 -90.85 95.35 -95 87 C-94.84 84.01 -94.45 82.5 -92.43 80.26 C-91.77 79.74 -91.12 79.22 -90.44 78.69 C-86.01 75.05 -82 71.1 -78 67 C-76 68 -76 68 -74.69 70.81 C-72.01 75.87 -68.36 78.29 -63 80 C-60.21 80.21 -57.52 80.33 -54.73 80.34 C-53.94 80.34 -53.15 80.35 -52.33 80.36 C-50.66 80.37 -48.98 80.37 -47.31 80.37 C-44.77 80.37 -42.24 80.41 -39.7 80.45 C-25.98 80.59 -25.98 80.59 -14.56 73.62 C-11.28 68.11 -10.68 62.92 -10.66 56.6 C-10.66 55.81 -10.65 55.01 -10.64 54.2 C-10.63 52.52 -10.63 50.85 -10.63 49.18 C-10.63 46.64 -10.59 44.1 -10.55 41.56 C-10.54 39.93 -10.54 38.3 -10.54 36.66 C-10.52 35.91 -10.51 35.17 -10.5 34.39 C-10.54 29.41 -11.64 26.02 -14.13 21.7 C-15 20 -15 20 -15.16 17.42 C-13.36 13.66 -10.52 11.14 -7.5 8.31 C-6.3 7.16 -5.1 6.02 -3.91 4.86 C-3.37 4.36 -2.84 3.86 -2.29 3.34 C-0.88 2.01 -0.88 2.01 0 0 Z " fill="#B11CA5" transform="translate(108,17)"/>
<path d="M0 0 C1.27 -0.01 2.53 -0.02 3.84 -0.03 C19.56 0.09 33.28 5.93 44.88 16.56 C44.3 19.84 43.37 21.42 40.97 23.69 C40.39 24.25 39.81 24.81 39.21 25.39 C38.61 25.96 38 26.53 37.38 27.12 C36.17 28.27 34.97 29.41 33.78 30.57 C33.25 31.07 32.72 31.57 32.17 32.09 C30.63 33.65 30.63 33.65 29.88 36.56 C29.33 36.29 28.79 36.01 28.23 35.72 C27.52 35.36 26.8 35 26.06 34.62 C25.35 34.27 24.65 33.91 23.92 33.54 C19.53 31.44 15.54 31.37 10.77 31.32 C9.97 31.32 9.17 31.31 8.35 31.3 C6.66 31.29 4.97 31.28 3.28 31.27 C1.56 31.26 -0.16 31.24 -1.88 31.21 C-4.37 31.16 -6.86 31.15 -9.36 31.14 C-10.11 31.12 -10.87 31.1 -11.65 31.08 C-17.24 31.11 -21.44 32.49 -26.12 35.56 C-30.27 39.82 -32.13 43.5 -32.11 49.47 C-32.01 51 -31.91 52.53 -31.79 54.05 C-30.23 83.12 -30.23 83.12 -35.39 90.47 C-38.87 94.28 -42.61 97.08 -47.12 99.56 C-47.78 99.56 -48.45 99.56 -49.12 99.56 C-49.78 100.88 -50.45 102.2 -51.12 103.56 C-59.58 91.07 -63.34 81.23 -63.48 66.21 C-63.5 64.23 -63.56 62.24 -63.61 60.26 C-63.76 43.48 -57.41 29.89 -45.88 17.81 C-32.62 5.15 -18.21 -0.34 0 0 Z " fill="#FDA54D" transform="translate(63.125,-0.5625)"/>
<path d="M0 0 C-1.65 4.25 -4.82 7.09 -7.99 10.24 C-8.91 11.16 -8.91 11.16 -9.85 12.1 C-11.88 14.13 -13.91 16.15 -15.94 18.17 C-17.35 19.58 -18.76 20.99 -20.16 22.39 C-23.11 25.34 -26.06 28.28 -29.01 31.22 C-32.81 35 -36.59 38.78 -40.38 42.56 C-43.28 45.47 -46.19 48.37 -49.1 51.27 C-50.49 52.66 -51.89 54.06 -53.29 55.45 C-55.23 57.4 -57.18 59.34 -59.14 61.28 C-60.01 62.15 -60.01 62.15 -60.9 63.05 C-64.89 67 -64.89 67 -66 67 C-66.88 48.63 -63.98 34.46 -51.49 20.12 C-36.58 4.51 -21.09 -1.08 0 0 Z " fill="#FBC82E" transform="translate(66,0)"/>
<path d="M0 0 C1.21 18.68 -4.14 32.96 -16.31 47.25 C-25.75 57.35 -39.81 66.25 -53.95 67.12 C-58.3 67.24 -62.65 67.16 -67 67 C-63.12 62.37 -59.11 57.96 -54.83 53.7 C-54.24 53.11 -53.66 52.53 -53.06 51.92 C-51.15 50.01 -49.24 48.1 -47.32 46.19 C-45.99 44.86 -44.66 43.52 -43.32 42.19 C-40.54 39.4 -37.75 36.62 -34.97 33.84 C-31.39 30.26 -27.81 26.69 -24.24 23.11 C-21.49 20.36 -18.74 17.61 -15.99 14.86 C-14.67 13.54 -13.35 12.22 -12.03 10.9 C-10.2 9.06 -8.36 7.23 -6.53 5.4 C-5.98 4.85 -5.43 4.3 -4.87 3.73 C-1.11 0 -1.11 0 0 0 Z " fill="#881BBF" transform="translate(128,61)"/>
<path d="M0 0 C0.79 -0.01 1.59 -0.01 2.4 -0.02 C4.08 -0.03 5.75 -0.03 7.43 -0.03 C9.96 -0.04 12.5 -0.08 15.04 -0.11 C32.69 -0.24 32.69 -0.24 39.29 5.75 C44.24 11.22 45.05 16.46 45.07 23.6 C45.08 24.79 45.08 24.79 45.09 26 C45.1 27.68 45.11 29.35 45.1 31.03 C45.11 33.56 45.15 36.1 45.18 38.64 C45.31 56.16 45.31 56.16 39.36 62.9 C33.78 68.02 27.6 68.65 20.34 68.67 C19.54 68.68 18.75 68.69 17.93 68.69 C16.26 68.7 14.59 68.71 12.91 68.71 C10.37 68.71 7.84 68.75 5.3 68.79 C3.66 68.79 2.03 68.79 0.4 68.8 C-0.35 68.81 -1.1 68.83 -1.87 68.84 C-7.98 68.79 -13.19 67.1 -17.8 62.96 C-22.89 57.28 -23.58 51.29 -23.6 43.94 C-23.61 43.14 -23.61 42.35 -23.62 41.53 C-23.63 39.86 -23.64 38.19 -23.64 36.51 C-23.64 33.98 -23.68 31.44 -23.71 28.9 C-23.72 27.27 -23.72 25.63 -23.73 24 C-23.75 22.88 -23.75 22.88 -23.77 21.73 C-23.72 15.64 -22.05 10.36 -17.85 5.8 C-12.28 0.89 -7.23 0.02 0 0 Z M-12.91 10.84 C-18.03 17.42 -17.48 23.45 -17.51 31.42 C-17.52 33.56 -17.55 35.71 -17.58 37.85 C-17.58 39.22 -17.59 40.6 -17.59 41.98 C-17.6 43.22 -17.61 44.46 -17.62 45.74 C-17.16 50.43 -15.9 54.43 -12.77 58.08 C-6.15 63.07 -0.12 62.55 7.82 62.58 C9.96 62.59 12.1 62.62 14.25 62.65 C15.62 62.65 17 62.66 18.38 62.66 C19.62 62.67 20.86 62.68 22.14 62.69 C27.36 62.17 31.31 60.8 35.05 56.96 C39.35 50.26 39.11 43.81 39.1 36.1 C39.11 33.97 39.15 31.85 39.18 29.73 C39.28 19.83 39.28 19.83 34.73 11.34 C28.2 5.13 21.04 6.12 12.52 6.1 C10.37 6.09 8.23 6.05 6.09 6.02 C4.71 6.02 3.34 6.01 1.96 6.01 C0.72 6 -0.52 5.99 -1.8 5.98 C-6.24 6.44 -9.6 7.82 -12.91 10.84 Z " fill="#FDF5F8" transform="translate(53.265625,29.6640625)"/>
<path d="M0 0 C2 1 2 1 3.31 3.81 C6.01 8.9 9.64 11.2 15 13 C18.09 13.36 18.09 13.36 21.39 13.41 C22.6 13.45 23.8 13.49 25.04 13.53 C26.91 13.58 26.91 13.58 28.81 13.62 C30.08 13.66 31.34 13.7 32.65 13.74 C35.76 13.84 38.88 13.92 42 14 C36.76 20.37 30.98 26.14 25.12 31.94 C24.14 32.92 23.16 33.9 22.17 34.88 C19.78 37.25 17.39 39.63 15 42 C3.28 38.09 -8.31 32.07 -16 22 C-17.25 19.38 -17.25 19.38 -17 17 C-15.38 15.28 -13.71 13.63 -12 12 C-10.96 10.97 -9.92 9.93 -8.89 8.89 C-5.92 5.92 -2.96 2.96 0 0 Z " fill="#D21C90" transform="translate(30,84)"/>
<path d="M0 0 C0.99 1.32 1.98 2.64 3 4 C6.56 3.39 9.68 2.42 13 1 C16.4 4.4 15.34 9.21 15.37 13.8 C15.37 14.87 15.37 14.87 15.37 15.96 C15.37 18.1 15.41 20.23 15.45 22.38 C15.51 29.9 15.29 35.65 11 42 C4.58 48.26 -2.76 47.22 -11.22 47.24 C-13.36 47.25 -15.5 47.28 -17.65 47.31 C-19.02 47.32 -20.4 47.32 -21.77 47.33 C-23.64 47.34 -23.64 47.34 -25.54 47.36 C-30.28 46.87 -33.63 45.37 -37 42 C-36.75 38.15 -34.63 36.32 -31.94 33.75 C-31.2 33.04 -30.47 32.34 -29.71 31.61 C-29.15 31.08 -28.58 30.55 -28 30 C-25.76 31.08 -23.86 32.11 -21.88 33.62 C-16.96 35.97 -11.92 35.84 -6.71 34.34 C-2.46 32.5 0.35 30.26 2.38 26.05 C3.79 21.41 4.08 16.5 2.13 11.98 C1.13 10.3 0.07 8.65 -1 7 C-1.88 4.19 -1.88 4.19 -2 2 C-1.34 1.34 -0.68 0.68 0 0 Z " fill="#CF1E93" transform="translate(77,45)"/>
<path d="M0 0 C4.9 2.57 8.14 6.04 9.88 11.27 C10.69 16.92 10.35 21.27 7.32 26.2 C3.75 30.91 0.37 32.72 -5.51 33.64 C-10.32 33.99 -13.55 33.46 -17.56 30.7 C-21.7 27.13 -23.66 23.55 -24.43 18.07 C-24.74 12.53 -23.69 8.54 -20.12 4.27 C-14.69 -1.57 -7.49 -2.59 0 0 Z " fill="#FEF6F9" transform="translate(71.12109375,47.734375)"/>
<path d="M0 0 C3.61 27.51 3.61 27.51 -2.2 35.33 C-5.67 39.05 -9.54 42.52 -14 45 C-14.66 45 -15.32 45 -16 45 C-16.66 46.32 -17.32 47.64 -18 49 C-19.18 47.28 -20.34 45.55 -21.5 43.81 C-22.15 42.85 -22.8 41.89 -23.47 40.89 C-25.12 37.77 -25.13 36.45 -25 33 C-25.64 30.66 -26.3 28.32 -27 26 C-23.32 22.29 -19.63 18.59 -15.95 14.89 C-14.69 13.63 -13.44 12.37 -12.18 11.11 C-10.39 9.3 -8.59 7.49 -6.79 5.69 C-6.22 5.12 -5.66 4.55 -5.08 3.96 C-1.11 0 -1.11 0 0 0 Z " fill="#FE8760" transform="translate(30,54)"/>
<path d="M0 0 C6.34 4.44 9.93 10.52 14 17 C12.44 20.75 10.11 23.13 7.25 25.98 C6.55 26.68 6.55 26.68 5.85 27.38 C4.88 28.35 3.91 29.31 2.93 30.27 C1.43 31.75 -0.06 33.24 -1.54 34.73 C-8.86 42 -8.86 42 -10 42 C-10.03 41.08 -10.05 40.16 -10.08 39.22 C-10.33 31.02 -10.33 31.02 -13.12 23.44 C-15 20 -15 20 -15.02 17.7 C-13.49 13.64 -10.63 11.24 -7.5 8.31 C-6.3 7.16 -5.1 6.02 -3.91 4.86 C-3.11 4.11 -3.11 4.11 -2.29 3.34 C-0.88 2.01 -0.88 2.01 0 0 Z " fill="#DE1C88" transform="translate(108,17)"/>
<path d="M0 0 C2 1 2 1 3.31 3.81 C6.01 8.91 9.63 11.16 15 13 C12.34 15.8 9.73 17.98 6.45 20.02 C5.61 20.54 4.76 21.07 3.89 21.62 C3.02 22.16 2.15 22.69 1.25 23.25 C0.36 23.8 -0.53 24.36 -1.44 24.93 C-3.62 26.29 -5.81 27.65 -8 29 C-9.13 28.07 -10.25 27.13 -11.38 26.19 C-12 25.67 -12.63 25.14 -13.27 24.61 C-15 23 -15 23 -17 20 C-16.82 17.03 -16.44 15.49 -14.43 13.26 C-13.77 12.74 -13.12 12.22 -12.44 11.69 C-8.01 8.05 -4 4.1 0 0 Z " fill="#FB3B80" transform="translate(30,84)"/>
<path d="M0 0 C2.49 1.17 4.5 2.45 6.65 4.16 C7.35 4.71 8.04 5.26 8.76 5.82 C9.28 6.24 9.8 6.66 10.34 7.1 C9.76 10.37 8.83 11.95 6.43 14.23 C5.85 14.79 5.27 15.35 4.68 15.92 C4.07 16.5 3.46 17.07 2.84 17.66 C1.63 18.8 0.44 19.95 -0.76 21.1 C-1.56 21.86 -1.56 21.86 -2.37 22.63 C-3.91 24.18 -3.91 24.18 -4.66 27.1 C-5.78 26.48 -6.89 25.86 -8.04 25.22 C-12.76 22.84 -17.48 21.95 -22.66 21.1 C-18.46 16.11 -14.14 11.28 -9.6 6.6 C-9 5.95 -8.4 5.31 -7.79 4.64 C-3.38 0.12 -3.38 0.12 0 0 Z " fill="#FF5076" transform="translate(97.6640625,8.90234375)"/>
<path d="M0 0 C3.58 0.02 5.54 0.46 8.31 2.75 C11.68 6.29 12.21 8.34 12.17 13.27 C11.54 16.99 9.47 18.78 6.81 21.38 C3.36 23.1 -0.41 22.86 -4.19 22.38 C-7.06 20.58 -8.68 19.39 -10.19 16.38 C-10.61 12.99 -10.68 9.75 -10.19 6.38 C-7.75 3.31 -7.75 3.31 -5.19 1.38 C-3.64 -0.17 -2.15 0.09 0 0 Z " fill="#FA3D83" transform="translate(63.1875,52.625)"/>
<path d="M0 0 C1.03 0 1.03 0 2.07 0 C4.25 0.01 6.43 0.02 8.61 0.04 C10.09 0.04 11.57 0.04 13.05 0.05 C16.68 0.06 20.3 0.08 23.93 0.1 C23.93 0.43 23.93 0.76 23.93 1.1 C22.31 0.98 22.31 0.98 20.66 0.86 C14.13 0.65 8.3 0.52 3.08 4.88 C0.27 7.59 -2.27 10.5 -4.74 13.51 C-7.15 16.38 -9.8 19.05 -12.69 21.43 C-15.89 24.21 -17.43 26.11 -17.88 30.4 C-17.93 31.93 -17.95 33.45 -17.95 34.97 C-17.97 35.76 -17.99 36.54 -18.01 37.35 C-18.06 39.26 -18.07 41.18 -18.07 43.1 C-18.4 43.1 -18.73 43.1 -19.07 43.1 C-19.15 38.79 -19.2 34.49 -19.24 30.18 C-19.25 28.72 -19.27 27.26 -19.3 25.79 C-19.34 23.68 -19.35 21.58 -19.37 19.46 C-19.38 18.2 -19.4 16.93 -19.41 15.62 C-18.98 11.15 -17.62 7.79 -14.57 4.45 C-9.5 0.5 -6.35 -0.03 0 0 Z " fill="#FE8769" transform="translate(55.07421875,35.90234375)"/>
<path d="M0 0 C2.88 1.5 2.88 1.5 5 3 C4.34 3.64 3.68 4.29 3 4.95 C0.65 7.29 -1.55 9.73 -3.75 12.21 C-15.59 25.2 -15.59 25.2 -21 26.11 C-24.18 26.07 -26.94 25.82 -30 25 C-25.22 19.3 -20.2 13.89 -15 8.56 C-13.83 7.32 -13.83 7.32 -12.63 6.06 C-11.87 5.28 -11.1 4.5 -10.31 3.69 C-9.63 2.98 -8.94 2.27 -8.24 1.54 C-5.31 -0.48 -3.49 -0.39 0 0 Z " fill="#FF7967" transform="translate(92,5)"/>
<path d="M0 0 C1.37 4.66 2.37 9.26 1 14 C-2.77 19.78 -8.39 25 -14 29 C-14.66 29 -15.32 29 -16 29 C-16.66 30.32 -17.32 31.64 -18 33 C-22.87 26.24 -22.87 26.24 -23 22 C-21.11 19.41 -21.11 19.41 -18.32 16.7 C-17.83 16.22 -17.35 15.74 -16.84 15.24 C-15.28 13.71 -13.7 12.2 -12.12 10.69 C-11.07 9.65 -10.01 8.61 -8.96 7.58 C-1.21 0 -1.21 0 0 0 Z " fill="#FF646E" transform="translate(30,70)"/>
<path d="M0 0 C2.23 1.08 4.25 2.17 6.31 3.56 C9.54 5.29 12.38 5.65 16 6 C12.79 9.3 9.62 12.1 6 15 C13.92 15.33 21.84 15.66 30 16 C30 16.33 30 16.66 30 17 C25.7 17.07 21.39 17.13 17.08 17.16 C15.62 17.18 14.16 17.2 12.7 17.23 C10.59 17.26 8.48 17.28 6.37 17.29 C4.47 17.32 4.47 17.32 2.53 17.34 C-2.26 16.88 -5.6 15.4 -9 12 C-8.75 8.15 -6.63 6.32 -3.94 3.75 C-3.2 3.04 -2.47 2.34 -1.71 1.61 C-1.15 1.08 -0.58 0.55 0 0 Z " fill="#F1398D" transform="translate(49,75)"/>
<path d="M0 0 C1.65 1.65 3.3 3.3 5 5 C3.09 8.09 1.17 11.17 -0.75 14.25 C-1.29 15.12 -1.83 16 -2.38 16.89 C-2.91 17.74 -3.44 18.58 -3.98 19.45 C-4.47 20.23 -4.95 21 -5.44 21.8 C-7.1 24.14 -8.93 26.04 -11 28 C-11.7 26.78 -12.39 25.55 -13.06 24.31 C-13.45 23.63 -13.83 22.94 -14.22 22.24 C-15.27 19.21 -15.17 18.01 -14 15 C-12.02 12.57 -9.78 10.45 -7.5 8.31 C-6.3 7.16 -5.1 6.02 -3.91 4.86 C-3.11 4.11 -3.11 4.11 -2.29 3.34 C-0.88 2.01 -0.88 2.01 0 0 Z " fill="#F73286" transform="translate(108,17)"/>
<path d="M0 0 C-1.32 0.33 -2.64 0.66 -4 1 C-4.07 1.55 -4.13 2.09 -4.2 2.66 C-5.35 6.01 -7.39 7.92 -9.81 10.5 C-10.3 11.01 -10.78 11.53 -11.28 12.06 C-12.84 13.72 -14.42 15.36 -16 17 C-16.54 17.57 -17.09 18.14 -17.65 18.73 C-19.25 20.41 -20.87 22.08 -22.5 23.75 C-23 24.28 -23.51 24.8 -24.03 25.34 C-25.29 26.62 -26.64 27.82 -28 29 C-28.99 29 -29.98 29 -31 29 C-31.33 29.66 -31.66 30.32 -32 31 C-30.72 21.09 -21.31 12.25 -14 6 C-4.05 -1.35 -4.05 -1.35 0 0 Z " fill="#FBE960" transform="translate(37,6)"/>
<path d="M0 0 C0.99 1.32 1.98 2.64 3 4 C6.56 3.39 9.68 2.42 13 1 C15 3 15 3 15.23 6.07 C15.22 7.36 15.21 8.65 15.2 9.98 C15.19 10.66 15.19 11.35 15.19 12.05 C15.18 14.24 15.15 16.43 15.12 18.62 C15.11 20.11 15.11 21.59 15.1 23.08 C15.08 26.72 15.04 30.36 15 34 C14.67 34 14.34 34 14 34 C13.67 26.08 13.34 18.16 13 10 C11.7 11.65 10.4 13.3 9.06 15 C7.73 16.69 6.39 18.36 5 20 C4.67 20 4.34 20 4 20 C3.89 19.4 3.78 18.79 3.67 18.17 C2.77 13.64 1.97 10.61 -1 7 C-1.81 4.38 -1.81 4.38 -2 2 C-1.34 1.34 -0.68 0.68 0 0 Z " fill="#ED3990" transform="translate(77,45)"/>
<path d="M0 0 C3.51 0.94 5.28 2.15 7.81 4.75 C9.12 7.5 9.12 7.5 9.81 9.75 C8.64 9.94 8.64 9.94 7.44 10.12 C4.67 10.54 4.67 10.54 2.81 12.75 C0.31 12.56 0.31 12.56 -2.19 11.75 C-2.85 10.76 -3.51 9.77 -4.19 8.75 C-5.18 10.23 -5.18 10.23 -6.19 11.75 C-5.53 12.08 -4.87 12.41 -4.19 12.75 C-5.18 13.25 -5.18 13.25 -6.19 13.75 C-6.85 13.42 -7.51 13.09 -8.19 12.75 C-8.19 11.76 -8.19 10.77 -8.19 9.75 C-9.18 9.42 -10.17 9.09 -11.19 8.75 C-4.4 1.04 -4.4 1.04 0 0 Z " fill="#FD4681" transform="translate(81.1875,37.25)"/>
<path d="M0 0 C-1 2 -1 2 -3.75 3.06 C-11.44 5.28 -11.44 5.28 -16 4 C-14.27 3.32 -12.54 2.66 -10.81 2 C-9.85 1.63 -8.89 1.26 -7.89 0.88 C-5.08 0.02 -2.92 -0.17 0 0 Z M-49 37 C-47.31 43.09 -49.5 47.45 -52 53 C-52.33 53 -52.66 53 -53 53 C-52.48 47.13 -51.24 42.45 -49 37 Z " fill="#FCE373" transform="translate(53,0)"/>
<path d="M0 0 C2.44 0.19 2.44 0.19 3.44 1.19 C3.62 3.62 3.62 3.62 3.44 6.19 C2.78 6.85 2.12 7.51 1.44 8.19 C-1.19 7.81 -1.19 7.81 -3.56 7.19 C-4.19 4.81 -4.19 4.81 -4.56 2.19 C-2.56 0.19 -2.56 0.19 0 0 Z " fill="#FEF1F6" transform="translate(82.5625,41.8125)"/>
</svg>
